<?xml version="1.0" encoding="UTF-8"?>
<svg version="1.1" xmlns="http://www.w3.org/2000/svg" width="512" height="512">
<path d="M0 0 C1.2065625 0.22816406 2.413125 0.45632812 3.65625 0.69140625 C10.88958899 2.25803289 17.3536081 4.49993329 21.9375 10.5625 C23.46888987 14.07568852 24.11844388 17.21153061 24.20532227 21.03417969 C24.22526749 21.81468689 24.24521271 22.59519409 24.26576233 23.39935303 C24.29083107 24.6480014 24.29083107 24.6480014 24.31640625 25.921875 C24.33718735 26.78186096 24.35796844 27.64184692 24.37937927 28.52789307 C24.44463739 31.26851598 24.50364917 34.00923275 24.5625 36.75 C24.60570781 38.6106867 24.64932282 40.47136398 24.69335938 42.33203125 C24.80029442 46.88792523 24.90162851 51.4439134 25 56 C25.7125293 56.16218018 26.42505859 56.32436035 27.15917969 56.49145508 C35.07528566 58.37169062 42.63357805 60.83755096 50.25 63.6875 C51.43150635 64.12811768 52.6130127 64.56873535 53.83032227 65.02270508 C62.89663512 68.46255075 71.51558541 72.31826249 80 77 C81.03511719 77.54914063 82.07023437 78.09828125 83.13671875 78.6640625 C111.8831305 94.52156022 128.32144291 119.57155765 137.72998047 150.39120483 C139.36205455 156.0782787 140.7871623 161.81472557 142.1875 167.5625 C142.41411316 168.4809671 142.64072632 169.3994342 142.87420654 170.34573364 C164.30969304 257.47385709 177.60653291 346.83320507 183.875 436.3125 C183.93675415 437.18729004 183.9985083 438.06208008 184.06213379 438.96337891 C184.38518897 443.62552609 184.6726357 448.28720355 184.89782715 452.95513916 C184.99746569 454.949279 185.12001882 456.94223226 185.24316406 458.93505859 C185.28924805 460.10504395 185.33533203 461.2750293 185.3828125 462.48046875 C185.45459717 463.98516724 185.45459717 463.98516724 185.52783203 465.52026367 C185 468 185 468 182.73217773 469.77197266 C170.9379404 475.07310873 156.94976705 475.36580514 144.25 475.375 C142.48450806 475.37729614 142.48450806 475.37729614 140.68334961 475.37963867 C126.08078088 475.19292106 126.08078088 475.19292106 122 473 C119.3907398 468.49078206 119.02513179 462.92749156 118.22265625 457.8515625 C117.87705527 455.73910642 117.53100519 453.62672378 117.18457031 451.5144043 C117.00269165 450.39480316 116.82081299 449.27520203 116.63342285 448.12167358 C110.18631797 408.63574083 102.35128649 369.47284997 93.3125 330.5 C93.05440552 329.38563568 92.79631104 328.27127136 92.53039551 327.12313843 C88.31695587 309.0042369 83.70606785 290.99590019 79 273 C79.10306638 287.24055194 79.21897238 301.48097282 79.34455872 315.72134399 C79.36478427 318.02429992 79.38475469 320.32725811 79.40446472 322.63021851 C79.68703263 357.8625315 79.68703263 357.8625315 80.6171875 393.08203125 C80.65649195 394.17934098 80.65649195 394.17934098 80.69659042 395.29881859 C80.95906299 402.5438329 81.2608577 409.78636245 81.60302734 417.02807617 C81.65194122 418.17898239 81.7008551 419.32988861 81.75125122 420.51567078 C81.8406841 422.61111629 81.94267138 424.70608532 82.06051636 426.80012512 C82.09758698 427.70204086 82.13465759 428.6039566 82.17285156 429.53320312 C82.21202698 430.30635864 82.25120239 431.07951416 82.29156494 431.87609863 C81.91212379 434.64013325 80.87026495 435.96570496 79 438 C76.73291016 438.84960937 76.73291016 438.84960937 74.0390625 439.34375 C72.51817017 439.63221802 72.51817017 439.63221802 70.96655273 439.92651367 C69.86384033 440.11576416 68.76112793 440.30501465 67.625 440.5 C65.89842163 440.81191284 65.89842163 440.81191284 64.13696289 441.13012695 C55.59450173 442.63680793 47.02468828 443.96326203 38.4375 445.1875 C37.3664502 445.3421875 36.29540039 445.496875 35.19189453 445.65625 C14.20925845 448.49465982 -6.78158571 449.38004112 -27.9375 449.3125 C-29.13311554 449.31067719 -30.32873108 449.30885437 -31.56057739 449.30697632 C-51.19735756 449.25682206 -70.52318493 448.55571406 -90 446 C-90.66612305 445.91278687 -91.33224609 445.82557373 -92.01855469 445.73571777 C-107.20938927 443.72681109 -122.27069686 441.11095055 -137.25 437.875 C-138.94660767 437.51281372 -138.94660767 437.51281372 -140.67749023 437.14331055 C-141.71719971 436.90781494 -142.75690918 436.67231934 -143.828125 436.4296875 C-144.7346582 436.22585449 -145.64119141 436.02202148 -146.57519531 435.81201172 C-149.44549865 434.85081268 -150.98676132 434.30018635 -153 432 C-153.39917906 428.99343383 -153.53586603 426.36025314 -153.49609375 423.3515625 C-153.49863663 422.45677689 -153.5011795 421.56199127 -153.50379944 420.64009094 C-153.50391126 417.6345465 -153.47179871 414.63033657 -153.4375 411.625 C-153.4269598 409.49161845 -153.416546 407.35823626 -153.40625 405.22485352 C-153.25502045 386.46026015 -152.30016568 367.74338294 -151.28768921 349.00900269 C-150.41847394 332.89485645 -149.70292613 316.82754744 -149.75 300.6875 C-149.75104736 299.92678192 -149.75209473 299.16606384 -149.75317383 298.3822937 C-149.78343177 288.22585137 -150.27017001 278.12681543 -151 268 C-158.93701007 297.14790673 -165.9513552 326.40189758 -172 356 C-172.18822327 356.92049133 -172.37644653 357.84098267 -172.57037354 358.78936768 C-176.74408232 379.28009356 -180.50929338 399.83314537 -183.9375 420.4609375 C-184.06236345 421.21204803 -184.18722691 421.96315857 -184.3158741 422.73703003 C-185.56483945 430.25880997 -186.80368497 437.78214007 -188.0194912 445.30935478 C-188.47383222 448.11808172 -188.93225244 450.92613527 -189.39115906 453.73411942 C-189.70711887 455.67901197 -190.01666531 457.62494298 -190.3260498 459.57089233 C-190.5174353 460.7419754 -190.7088208 461.91305847 -190.90600586 463.11962891 C-191.06983261 464.13924713 -191.23365936 465.15886536 -191.40245056 466.2093811 C-192.8174152 472.8174152 -192.8174152 472.8174152 -195 475 C-212.44499682 476.5481643 -239.83991064 476.10672624 -255 466 C-256.87820978 455.10374722 -254.28419419 442.13350965 -253.4375 431.1875 C-253.35141479 430.06953033 -253.26532959 428.95156067 -253.17663574 427.79971313 C-246.25323399 339.05917468 -233.06504855 250.45973794 -211.75 164 C-211.55334747 163.1921405 -211.35669495 162.38428101 -211.15408325 161.55194092 C-202.81215772 127.48765091 -187.53127406 99.57795972 -157 81 C-138.27869181 69.78421514 -117.64836082 62.77068364 -97 56 C-96.95512451 54.78940918 -96.91024902 53.57881836 -96.86401367 52.33154297 C-96.6932999 47.82457477 -96.50448827 43.31851288 -96.31030273 38.8125 C-96.22889165 36.86510806 -96.15233827 34.91750656 -96.08081055 32.96972656 C-95.97692187 30.16401574 -95.85537254 27.35953188 -95.73046875 24.5546875 C-95.70220505 23.68883026 -95.67394135 22.82297302 -95.64482117 21.93087769 C-95.35163943 15.88978397 -94.28122737 11.42380408 -90 6.875 C-65.73027944 -8.29357535 -26.90737982 -5.40823046 0 0 Z M-70 9 C-71.62421875 9.34224609 -71.62421875 9.34224609 -73.28125 9.69140625 C-78.86822848 10.97788156 -82.69155346 12.155489 -86 17 C-85.94505192 19.07452112 -85.94505192 19.07452112 -85 21 C-74.94785398 28.40815724 -58.09286513 29.12578863 -46.01171875 29.203125 C-44.90633759 29.21357849 -44.90633759 29.21357849 -43.77862549 29.22424316 C-41.41485823 29.24153189 -39.05132783 29.24796178 -36.6875 29.25 C-35.88208771 29.25100708 -35.07667542 29.25201416 -34.24685669 29.25305176 C-8.4436368 30.02142354 -8.4436368 30.02142354 14 20 C14.47722486 17.01272813 14.47722486 17.01272813 13 14 C5.82431991 9.14633773 -4.60918162 8.23745837 -13 7 C-13.65081543 6.90283691 -14.30163086 6.80567383 -14.97216797 6.70556641 C-22.28567871 5.75222555 -29.63517847 5.75847467 -37 5.75 C-37.68775513 5.74866058 -38.37551025 5.74732117 -39.08410645 5.74594116 C-49.68890874 5.75041772 -59.67022821 6.42940312 -70 9 Z M-86 31 C-87.56406695 35.69220086 -87.47335414 40.3961413 -87.625 45.3125 C-87.69589844 46.34568359 -87.76679688 47.37886719 -87.83984375 48.44335938 C-88.05416601 54.22970124 -88.05416601 54.22970124 -85.14770508 58.97338867 C-82.83045465 60.54764846 -80.53291139 61.80824499 -78 63 C-76.54400391 63.77923828 -76.54400391 63.77923828 -75.05859375 64.57421875 C-63.12921242 69.64109458 -52.01033421 71 -39 71 C-38.67 60.11 -38.34 49.22 -38 38 C-41.691875 37.773125 -45.38375 37.54625 -49.1875 37.3125 C-60.5619574 36.50594483 -71.26702194 34.46760436 -82.24194336 31.42724609 C-84.02236783 30.92128386 -84.02236783 30.92128386 -86 31 Z M7.0625 32.8125 C-4.63145503 36.17814338 -16.93276132 36.85862884 -29 38 C-29.9097804 45.39927377 -30.12410745 52.67523781 -30.0625 60.125 C-30.05798828 61.176875 -30.05347656 62.22875 -30.04882812 63.3125 C-30.03718011 65.87506221 -30.02082553 68.43749877 -30 71 C-13.66068594 69.81007169 3.79122094 68.20877906 16 56 C16.89609774 47.79842748 15.66931566 39.18716473 15 31 C12.15876707 31 9.78390677 31.98017972 7.0625 32.8125 Z M12.703125 69.01953125 C2.42713921 76.54832431 -12.21892297 77.4127097 -24.45449829 79.19308472 C-25.49360666 79.3443878 -26.53271503 79.49569088 -27.60331154 79.6515789 C-28.39421873 79.76655787 -29.18512592 79.88153683 -30 80 C-30.80444709 105.00487156 -31.2901424 130.00345526 -31.55859375 155.01953125 C-31.56901852 155.96309109 -31.5794433 156.90665093 -31.59018397 157.87880349 C-32.17503493 210.84258595 -32.11797252 263.80759816 -32.07202756 316.77387059 C-32.06400662 326.19031129 -32.05858589 335.60675018 -32.05493164 345.02319336 C-32.05466892 345.69824249 -32.05440619 346.37329161 -32.05413551 347.06879678 C-32.05282932 350.4594417 -32.05156589 353.85008665 -32.05032361 357.2407316 C-32.04016226 384.82715983 -32.02266214 412.4135794 -32 440 C-27.74956175 440.01111157 -23.49913149 440.01913867 -19.24868298 440.02446175 C-17.80649067 440.02668383 -16.36429934 440.02970943 -14.92211056 440.03359413 C-4.83538606 440.0600589 5.13998183 439.90080639 15.1875 438.875 C16.15833023 438.78245941 16.15833023 438.78245941 17.14877319 438.68804932 C35.30889098 436.94836933 54.36345139 434.74329897 72 430 C72.11443771 418.22563102 71.99105459 406.47634959 71.60001945 394.70743179 C70.94913765 374.84996749 70.66074821 354.99120075 70.4375 335.125 C70.42745438 334.24234467 70.41740875 333.35968933 70.40705872 332.45028687 C70.24684152 318.30039483 70.11384216 304.15033824 70 290 C69.99222786 289.04153671 69.98445572 288.08307343 69.97644806 287.0955658 C69.87734561 274.71006703 69.80542404 262.32474738 69.76882935 249.93890381 C69.75793106 246.36449422 69.74028026 242.79022638 69.71627808 239.21588135 C69.50724075 206.65424047 71.04926579 174.29693982 81 143 C85.75 142 85.75 142 88 142 C87.40048487 148.58800519 86.20137157 154.77141159 84.625 161.1875 C77.14679608 192.82148958 74.07401117 226.11121789 83.66711426 257.46929932 C85.4731881 263.38673528 87.14469813 269.34300714 88.83984375 275.29296875 C89.19088165 276.51262329 89.54191956 277.73227783 89.90359497 278.9888916 C93.5644262 291.77849192 96.72161929 304.67295368 99.75 317.625 C100.01463043 318.7541684 100.27926086 319.88333679 100.5519104 321.04672241 C107.40058039 350.38803723 113.65681115 379.88525895 119.16796875 409.5078125 C119.33298889 410.39316681 119.49800903 411.27852112 119.66802979 412.19070435 C120.42681907 416.27628254 121.17292625 420.36351308 121.89599609 424.45556641 C122.15067993 425.86100917 122.40539767 427.26644579 122.66015625 428.671875 C122.87293213 429.8794043 123.08570801 431.08693359 123.30493164 432.33105469 C123.64899048 433.65218262 123.64899048 433.65218262 124 435 C135.99057148 440.99528574 161.4597714 434.65595611 174 432 C173.38987903 416.72960989 172.01835494 401.57297745 170.4375 386.375 C170.30817078 385.12577759 170.17884155 383.87655518 170.04559326 382.58947754 C165.47588953 338.80852234 159.12358219 295.26246693 151 252 C150.82511047 251.06816895 150.65022095 250.13633789 150.47003174 249.17626953 C145.14553258 220.91961758 139.02556373 192.88298728 132 165 C131.70496582 163.824375 131.40993164 162.64875 131.10595703 161.4375 C122.8044345 128.90908517 107.46775779 104.0165616 78.2421875 86.44140625 C67.39191183 80.0992739 55.9815462 75.47870558 44.1875 71.1875 C43.16213135 70.81423584 42.1367627 70.44097168 41.08032227 70.05639648 C35.94636199 68.2377836 30.77526733 66.55095014 25.5390625 65.05078125 C24.59111816 64.77532471 23.64317383 64.49986816 22.66650391 64.21606445 C18.26371636 63.85931047 15.98121439 66.35479506 12.703125 69.01953125 Z M-109.1875 69.75 C-110.22002396 70.11664261 -110.22002396 70.11664261 -111.27340698 70.49069214 C-143.42005746 81.98124929 -175.61307183 97.84369744 -191.03662109 130.17285156 C-196.97514295 143.35776738 -200.7191433 156.95603138 -204 171 C-204.32354377 172.36853374 -204.64728369 173.73702111 -204.97119141 175.10546875 C-222.18485433 248.10674084 -233.79098639 322.09901669 -241.4375 396.6875 C-241.52158112 397.49453369 -241.60566223 398.30156738 -241.69229126 399.13305664 C-242.65144597 408.44000745 -243.23024559 417.63156271 -243 427 C-238.92980023 427.96390344 -234.85872701 428.9240076 -230.78686523 429.88085938 C-229.40674682 430.20570641 -228.02685652 430.53152436 -226.6472168 430.85839844 C-211.48936674 434.66454793 -211.48936674 434.66454793 -196 436 C-195.86156174 435.21122971 -195.72312347 434.42245941 -195.58049011 433.60978699 C-184.48711279 370.49065906 -172.6141999 307.7482929 -154.00219727 246.34448242 C-153.67147217 245.24080322 -153.34074707 244.13712402 -153 243 C-152.63358398 241.82445557 -152.26716797 240.64891113 -151.88964844 239.43774414 C-150.49417378 234.0454064 -150.6608299 228.79319046 -150.6875 223.25 C-150.69313965 222.01789795 -150.6987793 220.7857959 -150.70458984 219.51635742 C-150.9970348 196.78817276 -153.95047131 174.10838986 -161.17578125 152.48046875 C-162.05094251 149.84668961 -162.16214378 147.75644425 -162 145 C-160.02 144.67 -158.04 144.34 -156 144 C-144.5940028 168.21384881 -143.15146707 197.09241587 -142.46484375 223.390625 C-142.42138679 224.96763099 -142.37774229 226.54463183 -142.33392334 228.12162781 C-142.19555646 233.16426276 -142.06549658 238.20709234 -141.9375 243.25 C-141.90461569 244.54110624 -141.90461569 244.54110624 -141.87106705 245.85829544 C-141.55694866 258.23834573 -141.26644807 270.61883333 -141 283 C-140.97510498 284.14547302 -140.95020996 285.29094604 -140.92456055 286.47113037 C-140.42841082 310.15653315 -141.4367968 333.68480444 -142.71386719 357.33575439 C-143.94979866 380.24711889 -144.37821487 403.06078312 -144 426 C-136.30748111 428.81780312 -128.54338641 430.45187678 -120.5 431.9375 C-119.47002899 432.1301796 -119.47002899 432.1301796 -118.41925049 432.32675171 C-107.44902803 434.36540284 -96.45302223 435.98626466 -85.375 437.3125 C-84.70138428 437.39353973 -84.02776855 437.47457947 -83.33374023 437.55807495 C-71.58959551 438.95304299 -59.8988488 440.06597027 -48.06396484 440.0246582 C-47.38001144 440.02287819 -46.69605804 440.02109818 -45.99137878 440.01926422 C-44.32757979 440.01467462 -42.66378796 440.00760121 -41 440 C-40.99576806 438.88398533 -40.99153612 437.76797066 -40.98717594 436.61813736 C-40.88468373 409.62859065 -40.77870508 382.63905925 -40.66888306 355.64954133 C-40.65512679 352.26815135 -40.64139772 348.88676126 -40.62768555 345.50537109 C-40.62495724 344.83269041 -40.62222894 344.16000973 -40.61941796 343.46694478 C-40.57894853 333.4742254 -40.54029658 323.48150015 -40.50268555 313.48876953 C-40.44414566 297.97687291 -40.38238391 282.46499184 -40.31640625 266.953125 C-40.31099335 265.67769018 -40.30558045 264.40225536 -40.30000353 263.08817101 C-40.13058633 223.5789593 -39.82729519 184.07315533 -39.32704163 144.56671143 C-39.28389354 141.12618558 -39.24121634 137.68565428 -39.19897461 134.24511719 C-39.18390883 133.02386225 -39.18390883 133.02386225 -39.16853869 131.7779355 C-38.95978465 114.51855606 -38.95044686 97.26038154 -39 80 C-40.18628431 79.87895731 -40.18628431 79.87895731 -41.39653397 79.75546932 C-42.43560268 79.64916478 -43.4746714 79.54286024 -44.54522705 79.43333435 C-46.08922621 79.27555338 -46.08922621 79.27555338 -47.66441727 79.11458492 C-62.85129928 77.53156314 -75.50501609 74.79273507 -88.51171875 66.35546875 C-94.90085083 62.87504672 -102.82513029 67.48332056 -109.1875 69.75 Z M-244 436 C-244.83371359 438.95508447 -245.17889534 441.70109613 -245.31640625 444.765625 C-245.35830078 445.65507812 -245.40019531 446.54453125 -245.44335938 447.4609375 C-245.48267578 448.38132812 -245.52199219 449.30171875 -245.5625 450.25 C-245.60568359 451.18585938 -245.64886719 452.12171875 -245.69335938 453.0859375 C-245.7991805 455.39048641 -245.90126557 457.69513839 -246 460 C-230.86141424 464.00327172 -216.69029613 466.36254856 -201 466 C-200.49576443 463.25071558 -199.99646574 460.50068857 -199.5 457.75 C-199.35691406 456.97269531 -199.21382812 456.19539063 -199.06640625 455.39453125 C-198.93105469 454.64042969 -198.79570312 453.88632812 -198.65625 453.109375 C-198.53056641 452.41811523 -198.40488281 451.72685547 -198.27539062 451.01464844 C-197.90971022 448.67837306 -197.90971022 448.67837306 -198 445 C-202.78286506 444.03843083 -207.56599676 443.07820242 -212.34936523 442.11914062 C-213.9718325 441.79365012 -215.59423016 441.46781246 -217.21655273 441.14160156 C-226.13082991 439.34940029 -235.04353137 437.57174453 -244 436 Z M163.6796875 441.9296875 C155.84535794 443.08979846 148.02659167 443.6519901 140.125 444.125 C138.74345763 444.21173214 137.36194689 444.29896961 135.98046875 444.38671875 C132.65392015 444.59608195 129.32714829 444.80043527 126 445 C126.31044024 447.39611639 126.62328358 449.79187835 126.9375 452.1875 C127.06801758 453.19780273 127.06801758 453.19780273 127.20117188 454.22851562 C127.86423437 459.65976367 127.86423437 459.65976367 129 465 C140.16567142 470.58283571 162.18624023 466.24332238 174 463 C174.66 462.67 175.32 462.34 176 462 C175.505 451.605 175.505 451.605 175 441 C170.98434452 441 167.60770643 441.3020114 163.6796875 441.9296875 Z " fill="#282828" transform="translate(291,20)"/>
<path d="M0 0 C2.625 0.6875 2.625 0.6875 5 2 C6.44178365 6.32535096 4.73605255 9.50323931 3.25 13.625 C2.93708008 14.50164307 2.62416016 15.37828613 2.30175781 16.28149414 C-3.39421791 31.86911764 -10.27702741 47.00260043 -17.875 61.75 C-18.53483887 63.04442017 -18.53483887 63.04442017 -19.20800781 64.36499023 C-21.65504615 68.99901094 -24.06178826 72.52759825 -28 76 C-30.4375 75.25 -30.4375 75.25 -33 74 C-33.86450195 72.3425293 -33.86450195 72.3425293 -34 70 C-33.00895348 67.62558251 -31.97265805 65.50661679 -30.73046875 63.26953125 C-30.00329149 61.90709334 -29.27633107 60.54453968 -28.54956055 59.18188477 C-28.16359711 58.46880157 -27.77763367 57.75571838 -27.37997437 57.02102661 C-18.98722244 41.47719899 -12.04640994 25.75626248 -5.95947266 9.16357422 C-5.44779541 7.81223389 -5.44779541 7.81223389 -4.92578125 6.43359375 C-4.62712158 5.62849365 -4.32846191 4.82339355 -4.02075195 3.99389648 C-3 2 -3 2 0 0 Z " fill="#282828" transform="translate(197,307)"/>
<path d="M0 0 C3.125 -0.1875 3.125 -0.1875 6 0 C9.60613907 6.88213865 12.47620962 13.98397693 15.375 21.1875 C20.27692858 33.29907053 25.73122034 45.06206136 31.63037109 56.71948242 C32.20094238 57.86392822 32.77151367 59.00837402 33.359375 60.1875 C33.86952148 61.19167969 34.37966797 62.19585937 34.90527344 63.23046875 C36.0396371 66.10027726 36.39110926 67.95013786 36 71 C34 73 34 73 31.6875 73.625 C29 73 29 73 27.84155273 71.58666992 C24.33812738 65.78160564 21.2971749 59.80391604 18.375 53.6875 C17.8601001 52.61169678 17.3452002 51.53589355 16.81469727 50.42749023 C12.94721867 42.23632048 9.36376017 33.94714922 5.9375 25.5625 C5.48487793 24.45672607 5.03225586 23.35095215 4.56591797 22.21166992 C-1.37761946 7.41588775 -1.37761946 7.41588775 -2 3 C-1.34 2.01 -0.68 1.02 0 0 Z " fill="#282828" transform="translate(311,311)"/>
</svg>
