<?xml version="1.0" standalone="no"?>
<!DOCTYPE svg PUBLIC "-//W3C//DTD SVG 20010904//EN"
 "http://www.w3.org/TR/2001/REC-SVG-20010904/DTD/svg10.dtd">
<svg version="1.0" xmlns="http://www.w3.org/2000/svg"
 width="512.000000pt" height="512.000000pt" viewBox="0 0 512.000000 512.000000"
 preserveAspectRatio="xMidYMid meet">

<g transform="translate(0.000000,512.000000) scale(0.100000,-0.100000)"
fill="#000000" stroke="none">
<path d="M1551 5102 c-25 -19 -39 -71 -202 -752 -103 -426 -139 -613 -158
-805 -8 -82 -151 -3374 -151 -3478 0 -10 11 -29 25 -42 l24 -25 589 0 c673 0
628 -6 642 86 4 27 59 511 121 1077 63 565 116 1027 119 1027 3 0 56 -462 119
-1027 62 -566 117 -1050 121 -1077 14 -92 -31 -86 642 -86 l589 0 24 25 c14
13 25 32 25 43 0 100 -143 3393 -150 3472 -23 231 -44 336 -194 955 -131 543
-143 588 -167 608 -20 16 -83 17 -1009 17 -926 0 -989 -1 -1009 -18z m369
-222 l0 -80 -149 0 -149 0 20 80 20 80 129 0 129 0 0 -80z m240 -80 l0 -160
-40 0 -40 0 0 160 0 160 40 0 40 0 0 -160z m640 80 l0 -80 -240 0 -240 0 0 80
0 80 240 0 240 0 0 -80z m240 -80 l0 -160 -40 0 -40 0 0 160 0 160 40 0 40 0
0 -160z m438 80 l20 -80 -85 0 c-76 0 -86 -2 -108 -25 -16 -15 -25 -36 -25
-55 0 -19 9 -40 25 -55 23 -23 31 -25 130 -25 58 0 105 -3 105 -7 0 -5 25
-111 55 -237 31 -126 54 -230 52 -232 -2 -2 -60 10 -129 26 -180 41 -194 52
-302 230 -41 69 -44 77 -30 97 11 18 14 66 14 233 l0 210 129 0 129 0 20 -80z
m-1558 -295 c0 -46 4 -60 25 -80 23 -24 28 -25 175 -25 147 0 152 1 175 25 21
20 25 34 25 80 l0 55 75 0 75 0 0 -43 c0 -24 -14 -259 -31 -523 -36 -564 -35
-674 10 -939 l30 -180 -154 -1389 c-85 -765 -155 -1394 -155 -1398 0 -4 -218
-8 -484 -8 l-484 0 4 78 c3 42 34 779 69 1637 37 888 72 1621 81 1702 8 78 28
202 42 275 l27 133 175 40 c190 44 238 65 306 127 52 48 134 175 134 207 0 26
-51 81 -75 81 -24 0 -72 -27 -79 -45 -16 -44 -81 -125 -117 -149 -27 -18 -83
-37 -167 -56 -69 -16 -127 -28 -129 -26 -2 2 21 106 52 232 30 126 55 232 55
237 0 4 77 7 170 7 l170 0 0 -55z m880 0 c0 -46 4 -60 25 -80 21 -22 33 -25
97 -25 l73 0 85 -141 c134 -223 180 -255 440 -314 91 -20 168 -40 172 -44 11
-9 57 -270 73 -411 8 -69 44 -831 79 -1695 36 -863 67 -1603 70 -1642 l4 -73
-484 0 c-266 0 -484 3 -484 8 0 65 -321 2865 -346 3016 -20 126 -34 245 -34
300 -1 50 14 331 32 624 l32 532 83 0 83 0 0 -55z"/>
</g>
</svg>
