<?xml version="1.0" standalone="no"?>
<!DOCTYPE svg PUBLIC "-//W3C//DTD SVG 20010904//EN"
 "http://www.w3.org/TR/2001/REC-SVG-20010904/DTD/svg10.dtd">
<svg version="1.0" xmlns="http://www.w3.org/2000/svg"
 width="512.000000pt" height="512.000000pt" viewBox="0 0 512.000000 512.000000"
 preserveAspectRatio="xMidYMid meet">

<g transform="translate(0.000000,512.000000) scale(0.100000,-0.100000)"
fill="#000000" stroke="none">
<path d="M1823 4545 c-135 -29 -233 -105 -352 -271 -84 -119 -129 -200 -162
-297 -20 -57 -35 -84 -51 -93 -13 -6 -171 -74 -353 -149 -181 -76 -350 -148
-375 -160 -53 -27 -122 -94 -155 -150 -57 -96 -56 -51 -53 -1411 3 -1243 3
-1249 24 -1294 26 -58 76 -108 134 -134 l45 -21 2035 0 2035 0 45 21 c58 26
108 76 134 134 21 45 21 51 24 1294 3 1360 4 1314 -53 1411 -33 58 -101 122
-155 150 -25 13 -198 87 -384 164 -185 77 -344 144 -352 149 -8 5 -28 45 -43
89 -33 97 -78 178 -162 297 -120 168 -217 242 -356 271 -97 21 -1376 20 -1470
0z m1484 -166 c118 -44 213 -178 213 -303 0 -87 -25 -148 -121 -291 -218 -327
-481 -593 -753 -764 l-86 -53 -77 48 c-286 178 -541 436 -774 784 -82 124
-108 188 -109 267 0 132 84 259 205 308 l60 25 692 0 c681 0 693 0 750 -21z
m-1819 -511 c38 -83 169 -276 278 -413 126 -157 328 -354 476 -464 l126 -93
-57 -57 c-140 -137 -291 -439 -392 -784 -13 -42 -26 -77 -30 -77 -9 0 -115
228 -164 354 -170 441 -265 892 -282 1336 -5 142 0 260 12 260 2 0 16 -28 33
-62z m2189 -178 c-16 -459 -109 -906 -282 -1356 -50 -129 -155 -354 -165 -354
-4 0 -17 35 -29 78 -66 225 -190 512 -283 652 -23 36 -70 93 -104 127 l-62 61
126 94 c149 110 353 309 476 463 111 139 240 330 279 415 l31 64 9 -34 c5 -20
7 -113 4 -210z m-2393 -12 c3 -24 8 -90 11 -148 27 -483 178 -1053 400 -1517
141 -294 186 -351 254 -323 34 14 40 26 81 183 31 117 114 375 125 385 3 3 5
-342 5 -766 l0 -772 -806 0 -806 0 -34 34 -34 34 0 1237 c0 951 3 1247 12
1279 21 69 88 126 203 174 55 23 206 86 335 141 129 54 238 99 242 100 4 1 9
-18 12 -41z m2886 -93 c168 -70 321 -136 341 -146 48 -24 103 -89 117 -138 9
-28 12 -366 12 -1276 l0 -1237 -34 -34 -34 -34 -806 0 -806 0 0 772 c0 424 2
769 5 766 11 -10 94 -268 125 -385 41 -157 47 -169 81 -183 68 -28 113 29 254
323 224 468 376 1046 400 1528 8 147 13 182 28 176 7 -3 149 -62 317 -132z
m-1546 -800 c39 -19 106 -82 147 -138 l29 -40 0 -944 0 -943 -240 0 -240 0 0
943 0 944 28 39 c96 131 192 179 276 139z"/>
<path d="M1855 4153 c-30 -6 -125 -35 -125 -38 0 -1 15 -34 33 -72 l32 -70 35
13 c27 10 193 12 730 12 537 0 703 -2 730 -12 l35 -13 33 70 c37 81 39 79 -60
102 -57 13 -169 15 -745 14 -373 -1 -687 -3 -698 -6z"/>
<path d="M2503 2580 c-34 -21 -63 -66 -63 -100 0 -54 65 -120 118 -120 57 0
122 64 122 120 0 56 -65 120 -122 120 -13 0 -37 -9 -55 -20z"/>
<path d="M2503 1860 c-34 -21 -63 -66 -63 -100 0 -54 65 -120 118 -120 57 0
122 64 122 120 0 56 -65 120 -122 120 -13 0 -37 -9 -55 -20z"/>
<path d="M2503 1140 c-34 -21 -63 -66 -63 -100 0 -54 65 -120 118 -120 57 0
122 64 122 120 0 56 -65 120 -122 120 -13 0 -37 -9 -55 -20z"/>
</g>
</svg>
