<?xml version="1.0" standalone="no"?>
<!DOCTYPE svg PUBLIC "-//W3C//DTD SVG 20010904//EN"
 "http://www.w3.org/TR/2001/REC-SVG-20010904/DTD/svg10.dtd">
<svg version="1.0" xmlns="http://www.w3.org/2000/svg"
 width="512.000000pt" height="512.000000pt" viewBox="0 0 512.000000 512.000000"
 preserveAspectRatio="xMidYMid meet">

<g transform="translate(0.000000,512.000000) scale(0.100000,-0.100000)"
fill="#000000" stroke="none">
<path d="M1823 3816 c-60 -19 -104 -49 -212 -143 -218 -191 -422 -273 -676
-273 -129 0 -196 13 -463 89 -118 34 -223 61 -234 61 -10 0 -40 -5 -66 -12
-60 -15 -145 -96 -161 -153 -7 -28 -11 -331 -11 -975 l0 -935 24 -50 c25 -54
71 -100 123 -122 26 -10 154 -13 650 -13 576 0 621 2 658 19 52 23 111 89 126
140 10 34 16 40 33 36 752 -176 919 -200 1311 -192 404 9 909 60 1709 173 348
49 370 56 429 124 53 62 59 101 55 321 l-3 194 -32 67 c-37 78 -101 147 -171
182 -28 14 -271 95 -542 181 -270 86 -539 174 -597 197 -128 49 -315 143 -439
221 l-92 57 5 44 c4 35 1 48 -16 65 -25 25 -63 27 -100 5 -26 -15 -29 -15 -89
27 -61 42 -62 43 -55 81 5 32 2 43 -17 63 -28 29 -75 33 -102 8 -17 -15 -22
-13 -87 31 -67 47 -68 48 -58 77 9 24 8 33 -9 56 -24 33 -78 42 -109 19 -18
-13 -25 -10 -85 31 -65 45 -65 45 -62 88 3 35 0 45 -19 59 -29 20 -82 21 -98
2 -10 -12 -30 -2 -121 59 -61 42 -132 81 -161 89 -63 19 -178 20 -236 2z m306
-210 l101 -68 -42 -50 c-108 -126 -117 -150 -73 -193 49 -50 79 -34 195 103
l45 52 65 -46 c36 -25 64 -50 62 -56 -1 -5 -29 -41 -62 -79 -48 -56 -60 -76
-60 -104 0 -37 19 -62 56 -71 33 -8 60 11 130 95 32 38 64 70 70 70 8 1 89
-51 133 -85 2 -2 -26 -38 -63 -81 -76 -90 -85 -127 -40 -162 55 -43 67 -35
201 118 l30 34 61 -41 c33 -23 63 -46 66 -50 3 -5 -24 -44 -59 -86 -72 -86
-79 -113 -40 -151 48 -49 86 -29 197 103 l36 43 93 -61 c52 -34 176 -102 277
-152 l182 -91 0 -388 0 -388 -32 -6 c-18 -3 -105 -12 -193 -20 -602 -54 -880
-46 -1290 39 -147 31 -647 145 -650 148 -1 2 170 206 382 453 211 248 386 460
389 473 14 51 -37 101 -89 88 -17 -4 -159 -163 -438 -491 -227 -267 -418 -485
-425 -485 -6 0 -54 9 -105 19 -232 48 -603 95 -824 106 -66 3 -153 8 -192 11
l-73 6 0 590 0 590 29 29 c16 16 36 29 45 29 9 0 110 -27 225 -60 297 -84 355
-93 531 -87 171 6 281 32 426 101 114 54 183 101 304 206 122 106 154 121 247
118 70 -3 73 -5 172 -72z m2206 -1217 c264 -83 492 -158 506 -165 68 -34 137
-150 127 -215 -3 -24 -8 -25 -333 -71 -181 -26 -339 -51 -352 -57 -46 -21 -41
-105 8 -128 20 -10 79 -4 338 33 173 24 320 44 327 44 10 0 14 -16 14 -59 0
-48 -5 -65 -22 -86 -26 -29 -74 -38 -623 -110 -741 -97 -1100 -129 -1465 -130
-372 0 -434 9 -1074 155 -226 51 -274 59 -297 50 -34 -14 -49 -48 -49 -111 0
-40 -5 -55 -25 -74 l-24 -25 -596 0 -596 0 -24 25 -25 24 0 261 0 261 108 -6
c509 -27 793 -71 1492 -230 667 -152 805 -171 1185 -162 132 3 319 13 415 21
303 27 654 67 681 77 25 10 49 45 49 73 0 7 -10 26 -22 41 l-21 27 -99 -7 -98
-7 0 351 c0 193 3 351 7 351 4 0 224 -68 488 -151z"/>
</g>
</svg>
