<?xml version="1.0" standalone="no"?>
<!DOCTYPE svg PUBLIC "-//W3C//DTD SVG 20010904//EN"
 "http://www.w3.org/TR/2001/REC-SVG-20010904/DTD/svg10.dtd">
<svg version="1.0" xmlns="http://www.w3.org/2000/svg"
 width="512.000000pt" height="512.000000pt" viewBox="0 0 512.000000 512.000000"
 preserveAspectRatio="xMidYMid meet">

<g transform="translate(0.000000,512.000000) scale(0.100000,-0.100000)"
fill="#000000" stroke="none">
<path d="M1955 5104 c-48 -18 -99 -65 -128 -119 -19 -35 -22 -60 -25 -195 l-4
-155 -372 -213 c-408 -233 -476 -282 -589 -422 -81 -101 -167 -269 -197 -385
-11 -44 -74 -484 -140 -977 -97 -728 -118 -902 -109 -922 24 -51 103 -55 129
-6 6 12 63 407 125 878 63 471 120 886 126 922 22 121 100 308 113 270 3 -8
41 -199 85 -425 l79 -410 23 -707 23 -707 -63 -338 c-82 -443 -80 -432 -101
-443 -20 -11 -435 61 -480 83 -15 8 -26 23 -28 38 -2 14 13 144 33 289 20 145
34 274 30 287 -13 51 -100 65 -130 19 -14 -21 -85 -513 -85 -587 0 -21 5 -58
11 -81 10 -36 6 -85 -20 -289 -17 -136 -31 -261 -31 -279 0 -46 36 -104 79
-127 20 -11 120 -39 222 -63 217 -50 243 -49 299 8 34 35 41 54 108 301 68
248 75 266 112 308 29 33 43 61 53 106 l14 62 7 -190 c4 -104 9 -201 12 -215
9 -47 43 -91 87 -110 41 -19 82 -20 1337 -20 l1296 0 44 23 c68 34 90 84 91
212 1 55 4 145 8 200 l6 100 13 -61 c9 -47 22 -72 52 -106 37 -43 43 -60 112
-309 67 -247 74 -266 108 -301 56 -57 82 -58 299 -8 102 24 202 52 222 63 41
22 79 81 79 123 0 16 -14 145 -32 287 -26 213 -30 264 -20 291 7 18 12 50 12
73 0 72 -350 2656 -370 2738 -48 185 -185 402 -335 528 -87 73 -244 167 -279
167 -16 0 -38 -11 -53 -26 -20 -20 -24 -32 -19 -57 7 -36 8 -37 132 -115 51
-31 115 -77 142 -102 l51 -45 -98 -496 -99 -496 -7 -255 c-7 -252 -7 -256 14
-277 28 -28 76 -27 105 2 23 23 24 30 30 258 l7 234 81 420 c45 231 84 424 88
428 13 14 71 -122 96 -223 13 -54 98 -664 196 -1397 158 -1194 171 -1304 157
-1319 -23 -22 -474 -108 -499 -94 -22 12 -15 -16 -95 410 l-67 355 6 280 c4
154 9 306 13 337 5 54 4 59 -26 89 -26 25 -37 30 -59 24 -15 -3 -36 -15 -46
-25 -18 -17 -20 -53 -37 -527 -10 -279 -18 -509 -18 -510 -1 -2 -586 -3 -1300
-3 l-1299 0 -6 83 c-3 45 -18 449 -32 897 l-27 815 -98 495 -98 495 37 33 c75
67 164 123 476 301 313 180 318 182 333 161 44 -63 78 -81 229 -119 176 -45
298 -61 479 -61 180 0 296 15 476 60 144 37 164 46 212 99 20 23 39 41 42 41
3 0 68 -36 145 -80 77 -44 148 -80 158 -80 35 0 72 38 72 74 0 44 -17 57 -196
160 l-152 87 -4 152 c-4 169 -14 201 -80 264 -66 63 -62 63 -677 62 -461 0
-563 -3 -596 -15z m165 -374 c0 -167 -3 -240 -11 -240 -31 0 -119 33 -135 51
-17 19 -19 39 -19 201 l0 180 28 24 c22 19 39 24 83 24 l54 0 0 -240z m360
-31 l0 -272 -77 7 c-42 4 -89 10 -105 13 l-28 6 0 258 0 259 105 0 105 0 0
-271z m370 12 l0 -258 -37 -6 c-21 -4 -71 -9 -110 -13 l-73 -7 0 265 c0 146 3
268 7 271 3 4 53 7 110 7 l103 0 0 -259z m277 235 l28 -24 3 -169 c2 -122 -1
-175 -10 -193 -14 -27 -62 -54 -115 -65 l-33 -7 0 241 0 241 49 0 c38 0 56 -6
78 -24z m-1727 -4211 l0 -296 -57 3 -58 3 -7 155 c-3 85 -8 217 -11 293 l-4
137 68 0 69 0 0 -295z m310 0 l0 -295 -75 0 -75 0 0 295 0 295 75 0 75 0 0
-295z m300 0 l0 -295 -75 0 -75 0 0 295 0 295 75 0 75 0 0 -295z m310 0 l0
-295 -75 0 -75 0 0 295 0 295 75 0 75 0 0 -295z m300 0 l0 -295 -75 0 -75 0 0
295 0 295 75 0 75 0 0 -295z m310 0 l0 -295 -75 0 -75 0 0 295 0 295 75 0 75
0 0 -295z m305 0 l0 -290 -77 -3 -78 -3 0 296 0 296 78 -3 77 -3 0 -290z m305
0 l0 -295 -75 0 -75 0 0 295 0 295 75 0 75 0 0 -295z m313 158 c-3 -76 -8
-208 -11 -293 l-7 -155 -72 -3 -73 -3 0 296 0 295 84 0 83 0 -4 -137z m-3195
-258 c102 -20 187 -37 189 -38 2 -3 -117 -439 -121 -444 -3 -4 -337 75 -342
80 -3 2 7 97 21 210 14 113 25 210 25 216 0 17 27 14 228 -24z m4032 24 c0 -6
11 -103 25 -216 14 -113 24 -208 21 -210 -5 -5 -339 -84 -342 -80 -4 4 -123
441 -121 443 5 6 356 72 385 73 17 0 32 -4 32 -10z"/>
</g>
</svg>
