<?xml version="1.0" standalone="no"?>
<!DOCTYPE svg PUBLIC "-//W3C//DTD SVG 20010904//EN"
 "http://www.w3.org/TR/2001/REC-SVG-20010904/DTD/svg10.dtd">
<svg version="1.0" xmlns="http://www.w3.org/2000/svg"
 width="512.000000pt" height="512.000000pt" viewBox="0 0 512.000000 512.000000"
 preserveAspectRatio="xMidYMid meet">

<g transform="translate(0.000000,512.000000) scale(0.100000,-0.100000)"
fill="#000000" stroke="none">
<path d="M1345 4928 c-220 -105 -438 -215 -485 -245 -169 -109 -323 -295 -401
-481 -35 -85 -319 -1151 -319 -1197 1 -16 7 -41 14 -54 8 -15 165 -111 442
-271 l429 -247 5 -959 c4 -663 9 -968 16 -989 55 -150 147 -241 295 -291 114
-39 360 -101 509 -128 397 -73 823 -83 1230 -30 253 33 646 128 767 185 103
49 182 141 227 264 7 21 12 329 16 988 l5 958 425 245 c234 135 433 255 442
267 10 12 18 37 18 56 0 40 -271 1077 -307 1171 -77 205 -229 393 -417 515
-69 45 -280 149 -766 377 -57 27 -117 52 -131 55 -17 3 -64 -7 -121 -25 -112
-37 -221 -65 -348 -88 -136 -26 -525 -26 -660 -1 -119 22 -262 59 -359 92 -41
14 -86 25 -100 25 -14 -1 -206 -87 -426 -192z m367 -147 c23 -96 89 -225 163
-319 110 -139 267 -242 452 -298 78 -24 105 -27 233 -27 128 0 155 3 233 27
185 56 339 157 452 299 73 92 140 221 163 318 9 38 20 69 24 69 20 0 667 -315
720 -352 140 -94 257 -237 316 -388 30 -75 289 -1047 281 -1054 -6 -6 -651
-376 -655 -376 -2 0 -4 111 -4 248 0 227 -2 250 -20 279 -25 41 -79 58 -124
39 -66 -27 -61 82 -66 -1370 l-5 -1321 -22 -41 c-47 -88 -104 -116 -371 -183
-324 -82 -573 -112 -922 -112 -376 0 -676 40 -1020 137 -152 43 -202 64 -236
101 -64 68 -59 -43 -64 1416 l-5 1329 -28 24 c-42 36 -109 34 -148 -5 l-29
-29 0 -256 c0 -141 -2 -256 -5 -256 -16 0 -655 376 -655 385 0 26 253 973 276
1034 55 145 176 298 307 389 63 44 703 360 732 361 6 1 18 -30 27 -68z m393
31 c335 -69 636 -65 973 13 61 14 115 25 120 25 25 0 -46 -160 -106 -240 -86
-114 -230 -209 -372 -245 -83 -22 -244 -22 -325 0 -141 38 -282 132 -367 245
-40 53 -99 170 -111 219 -5 20 -3 22 16 18 12 -2 90 -19 172 -35z"/>
</g>
</svg>
